<svg id="fe0fd86b-7a99-4842-8d1b-5263102b6caa" data-name="Layer 1" xmlns="http://www.w3.org/2000/svg" viewBox="0 0 32 32"><rect width="32" height="32" rx="3.1"/><path d="M23.72,25.45H8.25s-.05-.05-.05-.16,0-.16.05-.16H10.6c.11,0,.16,0,.16-.1V7c0-.07,0-.1-.16-.1H8.25s-.05-.06-.05-.16,0-.16.05-.16H22.31c.07,0,.1,0,.1.08v5.65s-.05.05-.16.05-.16,0-.16-.05a6.31,6.31,0,0,0-.3-1.89,5.83,5.83,0,0,0-.91-1.75,4.68,4.68,0,0,0-1.53-1.28,4.58,4.58,0,0,0-2.16-.49H14.63c-.13,0-.19,0-.19.1v8.62h.61a3.31,3.31,0,0,0,1.44-.31,3.59,3.59,0,0,0,1.11-.8,3.32,3.32,0,0,0,.71-1.15A3.83,3.83,0,0,0,18.55,12s0-.06.13-.06.13,0,.13.06v7.52s0,0-.13,0-.13,0-.13,0a3.76,3.76,0,0,0-.24-1.32A3.36,3.36,0,0,0,17.6,17a3.64,3.64,0,0,0-1.11-.82,3.31,3.31,0,0,0-1.44-.3h-.61V25c0,.07.06.1.19.1h2.64a6.74,6.74,0,0,0,2.81-.54,6,6,0,0,0,2-1.4,5.69,5.69,0,0,0,1.12-1.91,6.43,6.43,0,0,0,.36-2.09s0-.06.13-.06.16,0,.16.06v6.18C23.8,25.43,23.77,25.45,23.72,25.45Z" transform="translate(0 0)" style="fill:#fff"/></svg>